<svg id="Layer_5" data-name="Layer 5" xmlns="http://www.w3.org/2000/svg" viewBox="0 0 1148.03 264.86"><defs><style>.cls-1,.cls-3{fill:#772ce8;}.cls-1{stroke:#772ce8;stroke-miterlimit:10;stroke-width:33px;}.cls-2{fill:#fff;}</style></defs><title>logo</title><path class="cls-1" d="M61.08,240.71V189.82h89.54V169.48H61.08V98.19l44.74-40.75h112v51h-89.6v20.34h89.6V200l-44.8,40.69Z"/><path class="cls-1" d="M242.49,240.71V57.44H399.26l44.8,40.75v81.43H309.66v61.09ZM376.83,138.93V108.39H309.66v30.54Z"/><path class="cls-1" d="M468.7,240.71V57.44H625.48l44.8,40.75V240.71H603.05V189.82H535.87v50.89Zm134.35-91.64V118.53H535.87v30.54Z"/><path class="cls-1" d="M739.66,240.71,694.91,200V128.73h89.55V108.39H694.91V57.44H851.69v112h-89.6v20.34h89.6v50.89Z"/><path class="cls-1" d="M876.33,240.71V57.44H1077.9l44.8,40.75V240.71h-67.23V118.53H1033.1V240.71H965.87V118.53H943.5V240.71Z"/><path class="cls-1" d="M26.08,208.71V157.82h89.54V137.48H26.08V66.19L70.82,25.44h112v51H93.25V96.73h89.6V168l-44.8,40.69Z"/><path class="cls-1" d="M207.49,208.71V25.44H364.26l44.8,40.75v81.43H274.66v61.09ZM341.83,106.93V76.39H274.66v30.54Z"/><path class="cls-1" d="M433.7,208.71V25.44H590.48l44.8,40.75V208.71H568.05V157.82H500.87v50.89Zm134.35-91.64V86.53H500.87v30.54Z"/><path class="cls-1" d="M704.66,208.71,659.91,168V96.73h89.55V76.39H659.91V25.44H816.69v112h-89.6v20.34h89.6v50.89Z"/><path class="cls-1" d="M841.33,208.71V25.44H1042.9l44.8,40.75V208.71h-67.23V86.53H998.1V208.71H930.87V86.53H908.5V208.71Z"/><path class="cls-2" d="M26.08,208.71V157.82h89.54V137.48H26.08V66.19L70.82,25.44h112v51H93.25V96.73h89.6V168l-44.8,40.69Z"/><path class="cls-2" d="M207.49,208.71V25.44H364.26l44.8,40.75v81.43H274.66v61.09ZM341.83,106.93V76.39H274.66v30.54Z"/><path class="cls-2" d="M433.7,208.71V25.44H590.48l44.8,40.75V208.71H568.05V157.82H500.87v50.89Zm134.35-91.64V86.53H500.87v30.54Z"/><path class="cls-2" d="M704.66,208.71,659.91,168V96.73h89.55V76.39H659.91V25.44H816.69v112h-89.6v20.34h89.6v50.89Z"/><path class="cls-2" d="M841.33,208.71V25.44H1042.9l44.8,40.75V208.71h-67.23V86.53H998.1V208.71H930.87V86.53H908.5V208.71Z"/><polygon class="cls-3" points="9.73 225.19 44.56 257.3 44.56 224.13 9.73 225.19"/><polygon class="cls-3" points="191.73 225.19 226.56 257.3 226.56 224.13 191.73 225.19"/><polygon class="cls-3" points="417.73 225.19 452.56 257.3 452.56 224.13 417.73 225.19"/><polygon class="cls-3" points="551.73 225.19 586.56 257.3 586.56 224.13 551.73 225.19"/></svg>